<mxfile host="Electron" modified="2024-04-25T23:16:35.431Z" agent="Mozilla/5.0 (X11; Linux x86_64) AppleWebKit/537.36 (KHTML, like Gecko) draw.io/24.1.0 Chrome/122.0.6261.156 Electron/29.3.0 Safari/537.36" etag="2bz3MS5ekXmc3ia2UCcW" version="24.1.0" type="device">
  <diagram id="R2lEEEUBdFMjLlhIrx00" name="Page-1">
    <mxGraphModel dx="979" dy="566" grid="1" gridSize="10" guides="1" tooltips="1" connect="1" arrows="1" fold="1" page="1" pageScale="1" pageWidth="850" pageHeight="1100" background="#FFFFFF" math="0" shadow="0" extFonts="Permanent Marker^https://fonts.googleapis.com/css?family=Permanent+Marker">
      <root>
        <mxCell id="0" />
        <object label="background" id="v2eCrjNbCVR9gLbqSEYK-68">
          <mxCell style="locked=1;" parent="0" />
        </object>
        <mxCell id="v2eCrjNbCVR9gLbqSEYK-70" value="" style="rounded=0;whiteSpace=wrap;html=1;" parent="v2eCrjNbCVR9gLbqSEYK-68" vertex="1">
          <mxGeometry x="40" width="1560" height="650" as="geometry" />
        </mxCell>
        <object label="main" id="1">
          <mxCell style="" parent="0" />
        </object>
        <mxCell id="v2eCrjNbCVR9gLbqSEYK-106" value="" style="swimlane;startSize=0;swimlaneFillColor=#CCCCCC;shadow=1;" parent="1" vertex="1">
          <mxGeometry x="70" y="30" width="90" height="90" as="geometry" />
        </mxCell>
        <mxCell id="v2eCrjNbCVR9gLbqSEYK-40" value="Trait" style="rounded=0;whiteSpace=wrap;html=1;fillColor=#fa6800;strokeColor=#C73500;fontColor=#000000;shape=parallelogram;fixedSize=1;perimeter=parallelogramPerimeter;flipH=0;flipV=0;" parent="v2eCrjNbCVR9gLbqSEYK-106" vertex="1">
          <mxGeometry x="12.5" y="50" width="65" height="20" as="geometry" />
        </mxCell>
        <mxCell id="v2eCrjNbCVR9gLbqSEYK-41" value="Struct" style="rounded=1;whiteSpace=wrap;fillColor=#1ba1e2;strokeColor=#006EAF;fontColor=#ffffff;verticalAlign=middle;html=1;spacing=2;flipH=0;flipV=0;" parent="v2eCrjNbCVR9gLbqSEYK-106" vertex="1">
          <mxGeometry x="20" y="20" width="50" height="20" as="geometry" />
        </mxCell>
        <mxCell id="8NO0AHSbTcHH3xZStWIT-26" value="Structs with corresponding operation and construction traits" style="swimlane;whiteSpace=wrap;html=1;" parent="1" vertex="1">
          <mxGeometry x="70" y="170" width="560" height="430" as="geometry">
            <mxRectangle x="70" y="170" width="360" height="30" as="alternateBounds" />
          </mxGeometry>
        </mxCell>
        <mxCell id="8NO0AHSbTcHH3xZStWIT-27" value="" style="group" parent="8NO0AHSbTcHH3xZStWIT-26" vertex="1" connectable="0">
          <mxGeometry x="20" y="40" width="520" height="370" as="geometry" />
        </mxCell>
        <mxCell id="v2eCrjNbCVR9gLbqSEYK-79" value="&lt;div&gt;Line&lt;/div&gt;" style="rounded=1;whiteSpace=wrap;html=1;fillColor=#1ba1e2;strokeColor=#006EAF;fontColor=#ffffff;" parent="8NO0AHSbTcHH3xZStWIT-27" vertex="1">
          <mxGeometry x="220" y="280" width="80" height="40" as="geometry" />
        </mxCell>
        <mxCell id="v2eCrjNbCVR9gLbqSEYK-80" style="edgeStyle=orthogonalEdgeStyle;rounded=1;orthogonalLoop=1;jettySize=auto;html=1;noEdgeStyle=1;orthogonal=1;" parent="8NO0AHSbTcHH3xZStWIT-27" source="v2eCrjNbCVR9gLbqSEYK-82" target="v2eCrjNbCVR9gLbqSEYK-79" edge="1">
          <mxGeometry relative="1" as="geometry">
            <Array as="points" />
          </mxGeometry>
        </mxCell>
        <mxCell id="v2eCrjNbCVR9gLbqSEYK-81" value="&lt;div&gt;Newtype&lt;/div&gt;&lt;div&gt;(&lt;font color=&quot;#26a269&quot;&gt;abstraction&lt;/font&gt;)&lt;/div&gt;" style="edgeLabel;html=1;align=center;verticalAlign=middle;resizable=0;points=[];rounded=1;" parent="v2eCrjNbCVR9gLbqSEYK-80" vertex="1" connectable="0">
          <mxGeometry relative="1" as="geometry">
            <mxPoint as="offset" />
          </mxGeometry>
        </mxCell>
        <mxCell id="v2eCrjNbCVR9gLbqSEYK-82" value="&lt;div&gt;DirectedLine&lt;/div&gt;" style="rounded=1;whiteSpace=wrap;html=1;fillColor=#1ba1e2;strokeColor=#006EAF;fontColor=#ffffff;" parent="8NO0AHSbTcHH3xZStWIT-27" vertex="1">
          <mxGeometry x="220.0011111111112" y="160" width="80" height="40" as="geometry" />
        </mxCell>
        <mxCell id="v2eCrjNbCVR9gLbqSEYK-83" value="TwoDifferentPoints" style="rounded=1;whiteSpace=wrap;html=1;fillColor=#1ba1e2;strokeColor=#006EAF;fontColor=#ffffff;" parent="8NO0AHSbTcHH3xZStWIT-27" vertex="1">
          <mxGeometry x="200" y="40" width="120" height="40" as="geometry" />
        </mxCell>
        <mxCell id="v2eCrjNbCVR9gLbqSEYK-84" value="" style="endArrow=classic;html=1;rounded=1;noEdgeStyle=1;orthogonal=1;" parent="8NO0AHSbTcHH3xZStWIT-27" source="v2eCrjNbCVR9gLbqSEYK-83" target="v2eCrjNbCVR9gLbqSEYK-82" edge="1">
          <mxGeometry width="50" height="50" relative="1" as="geometry">
            <mxPoint x="290" y="575" as="sourcePoint" />
            <mxPoint x="340" y="525" as="targetPoint" />
            <Array as="points" />
          </mxGeometry>
        </mxCell>
        <mxCell id="v2eCrjNbCVR9gLbqSEYK-85" value="&lt;div&gt;Newtype&lt;/div&gt;&lt;div&gt;(&lt;font color=&quot;#26a269&quot;&gt;abstraction&lt;/font&gt;)&lt;/div&gt;" style="edgeLabel;html=1;align=center;verticalAlign=middle;resizable=0;points=[];rounded=1;" parent="v2eCrjNbCVR9gLbqSEYK-84" vertex="1" connectable="0">
          <mxGeometry relative="1" as="geometry">
            <mxPoint as="offset" />
          </mxGeometry>
        </mxCell>
        <mxCell id="v2eCrjNbCVR9gLbqSEYK-86" value="" style="endArrow=classic;html=1;rounded=1;" parent="8NO0AHSbTcHH3xZStWIT-27" source="v2eCrjNbCVR9gLbqSEYK-79" target="v2eCrjNbCVR9gLbqSEYK-94" edge="1">
          <mxGeometry width="50" height="50" relative="1" as="geometry">
            <mxPoint x="350" y="290" as="sourcePoint" />
            <mxPoint x="400" y="240" as="targetPoint" />
          </mxGeometry>
        </mxCell>
        <mxCell id="v2eCrjNbCVR9gLbqSEYK-87" value="impl" style="edgeLabel;html=1;align=center;verticalAlign=middle;resizable=0;points=[];rounded=1;" parent="v2eCrjNbCVR9gLbqSEYK-86" vertex="1" connectable="0">
          <mxGeometry relative="1" as="geometry">
            <mxPoint as="offset" />
          </mxGeometry>
        </mxCell>
        <mxCell id="v2eCrjNbCVR9gLbqSEYK-88" value="" style="endArrow=classic;html=1;rounded=1;" parent="8NO0AHSbTcHH3xZStWIT-27" source="v2eCrjNbCVR9gLbqSEYK-82" target="v2eCrjNbCVR9gLbqSEYK-95" edge="1">
          <mxGeometry width="50" height="50" relative="1" as="geometry">
            <mxPoint x="250" y="328" as="sourcePoint" />
            <mxPoint x="380" y="372" as="targetPoint" />
          </mxGeometry>
        </mxCell>
        <mxCell id="v2eCrjNbCVR9gLbqSEYK-89" value="impl" style="edgeLabel;html=1;align=center;verticalAlign=middle;resizable=0;points=[];rounded=1;" parent="v2eCrjNbCVR9gLbqSEYK-88" vertex="1" connectable="0">
          <mxGeometry relative="1" as="geometry">
            <mxPoint as="offset" />
          </mxGeometry>
        </mxCell>
        <mxCell id="v2eCrjNbCVR9gLbqSEYK-90" value="" style="endArrow=classic;html=1;rounded=1;" parent="8NO0AHSbTcHH3xZStWIT-27" source="v2eCrjNbCVR9gLbqSEYK-79" target="v2eCrjNbCVR9gLbqSEYK-98" edge="1">
          <mxGeometry width="50" height="50" relative="1" as="geometry">
            <mxPoint x="286" y="270" as="sourcePoint" />
            <mxPoint x="220" y="220" as="targetPoint" />
          </mxGeometry>
        </mxCell>
        <mxCell id="v2eCrjNbCVR9gLbqSEYK-91" value="impl" style="edgeLabel;html=1;align=center;verticalAlign=middle;resizable=0;points=[];rounded=1;" parent="v2eCrjNbCVR9gLbqSEYK-90" vertex="1" connectable="0">
          <mxGeometry relative="1" as="geometry">
            <mxPoint as="offset" />
          </mxGeometry>
        </mxCell>
        <mxCell id="v2eCrjNbCVR9gLbqSEYK-92" value="" style="endArrow=classic;html=1;rounded=1;" parent="8NO0AHSbTcHH3xZStWIT-27" source="v2eCrjNbCVR9gLbqSEYK-82" target="v2eCrjNbCVR9gLbqSEYK-99" edge="1">
          <mxGeometry width="50" height="50" relative="1" as="geometry">
            <mxPoint x="270" y="210" as="sourcePoint" />
            <mxPoint x="204" y="160" as="targetPoint" />
          </mxGeometry>
        </mxCell>
        <mxCell id="v2eCrjNbCVR9gLbqSEYK-93" value="impl" style="edgeLabel;html=1;align=center;verticalAlign=middle;resizable=0;points=[];rounded=1;" parent="v2eCrjNbCVR9gLbqSEYK-92" vertex="1" connectable="0">
          <mxGeometry relative="1" as="geometry">
            <mxPoint as="offset" />
          </mxGeometry>
        </mxCell>
        <mxCell id="v2eCrjNbCVR9gLbqSEYK-94" value="&lt;div&gt;Line&lt;/div&gt;&lt;div&gt;Ops&lt;br&gt;&lt;/div&gt;" style="rounded=0;whiteSpace=wrap;html=1;fillColor=#fa6800;strokeColor=#C73500;fontColor=#000000;shape=parallelogram;fixedSize=1;perimeter=parallelogramPerimeter;" parent="8NO0AHSbTcHH3xZStWIT-27" vertex="1">
          <mxGeometry x="20" y="280" width="110" height="40" as="geometry" />
        </mxCell>
        <mxCell id="v2eCrjNbCVR9gLbqSEYK-95" value="&lt;div&gt;DirectedLine&lt;/div&gt;&lt;div&gt;Ops&lt;br&gt;&lt;/div&gt;" style="rounded=0;whiteSpace=wrap;html=1;fillColor=#fa6800;strokeColor=#C73500;fontColor=#000000;shape=parallelogram;fixedSize=1;perimeter=parallelogramPerimeter;" parent="8NO0AHSbTcHH3xZStWIT-27" vertex="1">
          <mxGeometry x="10" y="160" width="130" height="40" as="geometry" />
        </mxCell>
        <mxCell id="v2eCrjNbCVR9gLbqSEYK-96" value="" style="endArrow=classic;html=1;rounded=1;" parent="8NO0AHSbTcHH3xZStWIT-27" source="v2eCrjNbCVR9gLbqSEYK-95" target="v2eCrjNbCVR9gLbqSEYK-94" edge="1">
          <mxGeometry relative="1" as="geometry">
            <mxPoint x="590" y="50" as="sourcePoint" />
            <mxPoint x="690" y="50" as="targetPoint" />
          </mxGeometry>
        </mxCell>
        <mxCell id="v2eCrjNbCVR9gLbqSEYK-97" value="&lt;div&gt;Require&lt;/div&gt;&lt;div&gt;(simpler&lt;/div&gt;&lt;div&gt;manipulation)&lt;br&gt;&lt;/div&gt;" style="edgeLabel;resizable=0;html=1;;align=center;verticalAlign=middle;container=0;rounded=1;" parent="v2eCrjNbCVR9gLbqSEYK-96" connectable="0" vertex="1">
          <mxGeometry relative="1" as="geometry">
            <mxPoint y="-10" as="offset" />
          </mxGeometry>
        </mxCell>
        <mxCell id="v2eCrjNbCVR9gLbqSEYK-98" value="&lt;div&gt;Line&lt;/div&gt;&lt;div&gt;Constructors&lt;br&gt;&lt;/div&gt;" style="rounded=0;whiteSpace=wrap;html=1;fillColor=#fa6800;strokeColor=#C73500;fontColor=#000000;shape=parallelogram;fixedSize=1;perimeter=parallelogramPerimeter;" parent="8NO0AHSbTcHH3xZStWIT-27" vertex="1">
          <mxGeometry x="390" y="280" width="110" height="40" as="geometry" />
        </mxCell>
        <mxCell id="v2eCrjNbCVR9gLbqSEYK-99" value="&lt;div&gt;DirectedLine&lt;/div&gt;&lt;div&gt;Constructors&lt;br&gt;&lt;/div&gt;" style="rounded=0;whiteSpace=wrap;html=1;fillColor=#fa6800;strokeColor=#C73500;fontColor=#000000;shape=parallelogram;fixedSize=1;perimeter=parallelogramPerimeter;" parent="8NO0AHSbTcHH3xZStWIT-27" vertex="1">
          <mxGeometry x="375" y="160" width="140" height="40" as="geometry" />
        </mxCell>
        <mxCell id="v2eCrjNbCVR9gLbqSEYK-100" value="" style="endArrow=classic;html=1;rounded=1;" parent="8NO0AHSbTcHH3xZStWIT-27" source="v2eCrjNbCVR9gLbqSEYK-98" target="v2eCrjNbCVR9gLbqSEYK-99" edge="1">
          <mxGeometry relative="1" as="geometry">
            <mxPoint x="327" y="435" as="sourcePoint" />
            <mxPoint x="173" y="190" as="targetPoint" />
          </mxGeometry>
        </mxCell>
        <mxCell id="v2eCrjNbCVR9gLbqSEYK-101" value="&lt;div&gt;Require&lt;/div&gt;&lt;div&gt;(discard data)&lt;br&gt;&lt;/div&gt;" style="edgeLabel;resizable=0;html=1;;align=center;verticalAlign=middle;container=0;rounded=1;" parent="v2eCrjNbCVR9gLbqSEYK-100" connectable="0" vertex="1">
          <mxGeometry relative="1" as="geometry">
            <mxPoint as="offset" />
          </mxGeometry>
        </mxCell>
        <mxCell id="8NO0AHSbTcHH3xZStWIT-1" value="" style="endArrow=classic;html=1;rounded=1;" parent="8NO0AHSbTcHH3xZStWIT-27" source="v2eCrjNbCVR9gLbqSEYK-82" target="v2eCrjNbCVR9gLbqSEYK-94" edge="1">
          <mxGeometry width="50" height="50" relative="1" as="geometry">
            <mxPoint x="220" y="230" as="sourcePoint" />
            <mxPoint x="150" y="230" as="targetPoint" />
          </mxGeometry>
        </mxCell>
        <mxCell id="8NO0AHSbTcHH3xZStWIT-2" value="impl" style="edgeLabel;html=1;align=center;verticalAlign=middle;resizable=0;points=[];rounded=1;" parent="8NO0AHSbTcHH3xZStWIT-1" vertex="1" connectable="0">
          <mxGeometry relative="1" as="geometry">
            <mxPoint as="offset" />
          </mxGeometry>
        </mxCell>
        <mxCell id="8NO0AHSbTcHH3xZStWIT-3" value="" style="endArrow=classic;html=1;rounded=1;" parent="8NO0AHSbTcHH3xZStWIT-27" source="v2eCrjNbCVR9gLbqSEYK-79" target="v2eCrjNbCVR9gLbqSEYK-99" edge="1">
          <mxGeometry width="50" height="50" relative="1" as="geometry">
            <mxPoint x="310" y="310" as="sourcePoint" />
            <mxPoint x="395" y="310" as="targetPoint" />
          </mxGeometry>
        </mxCell>
        <mxCell id="8NO0AHSbTcHH3xZStWIT-4" value="impl" style="edgeLabel;html=1;align=center;verticalAlign=middle;resizable=0;points=[];rounded=1;" parent="8NO0AHSbTcHH3xZStWIT-3" vertex="1" connectable="0">
          <mxGeometry relative="1" as="geometry">
            <mxPoint as="offset" />
          </mxGeometry>
        </mxCell>
        <mxCell id="8NO0AHSbTcHH3xZStWIT-5" value="&lt;div&gt;TwoDifferentPoints&lt;br&gt;&lt;/div&gt;&lt;div&gt;Ops&lt;br&gt;&lt;/div&gt;" style="rounded=0;whiteSpace=wrap;html=1;fillColor=#fa6800;strokeColor=#C73500;fontColor=#000000;shape=parallelogram;fixedSize=1;perimeter=parallelogramPerimeter;" parent="8NO0AHSbTcHH3xZStWIT-27" vertex="1">
          <mxGeometry y="40" width="150" height="40" as="geometry" />
        </mxCell>
        <mxCell id="8NO0AHSbTcHH3xZStWIT-6" value="&lt;div&gt;TwoDifferentPoints&lt;br&gt;&lt;/div&gt;&lt;div&gt;Constructors&lt;br&gt;&lt;/div&gt;" style="rounded=0;whiteSpace=wrap;html=1;fillColor=#fa6800;strokeColor=#C73500;fontColor=#000000;shape=parallelogram;fixedSize=1;perimeter=parallelogramPerimeter;" parent="8NO0AHSbTcHH3xZStWIT-27" vertex="1">
          <mxGeometry x="370" y="40" width="150" height="40" as="geometry" />
        </mxCell>
        <mxCell id="8NO0AHSbTcHH3xZStWIT-7" value="" style="endArrow=classic;html=1;rounded=1;" parent="8NO0AHSbTcHH3xZStWIT-27" source="8NO0AHSbTcHH3xZStWIT-5" target="v2eCrjNbCVR9gLbqSEYK-95" edge="1">
          <mxGeometry relative="1" as="geometry">
            <mxPoint x="-60" y="90" as="sourcePoint" />
            <mxPoint x="-60" y="170" as="targetPoint" />
          </mxGeometry>
        </mxCell>
        <mxCell id="8NO0AHSbTcHH3xZStWIT-8" value="&lt;div&gt;Require&lt;/div&gt;&lt;div&gt;(simpler&lt;/div&gt;&lt;div&gt;manipulation)&lt;br&gt;&lt;/div&gt;" style="edgeLabel;resizable=0;html=1;;align=center;verticalAlign=middle;container=0;rounded=1;" parent="8NO0AHSbTcHH3xZStWIT-7" connectable="0" vertex="1">
          <mxGeometry relative="1" as="geometry">
            <mxPoint as="offset" />
          </mxGeometry>
        </mxCell>
        <mxCell id="8NO0AHSbTcHH3xZStWIT-9" value="" style="endArrow=classic;html=1;rounded=1;" parent="8NO0AHSbTcHH3xZStWIT-27" source="v2eCrjNbCVR9gLbqSEYK-99" target="8NO0AHSbTcHH3xZStWIT-6" edge="1">
          <mxGeometry relative="1" as="geometry">
            <mxPoint x="605" y="150" as="sourcePoint" />
            <mxPoint x="605" y="70" as="targetPoint" />
          </mxGeometry>
        </mxCell>
        <mxCell id="8NO0AHSbTcHH3xZStWIT-10" value="&lt;div&gt;Require&lt;/div&gt;&lt;div&gt;(discard data)&lt;br&gt;&lt;/div&gt;" style="edgeLabel;resizable=0;html=1;;align=center;verticalAlign=middle;container=0;rounded=1;" parent="8NO0AHSbTcHH3xZStWIT-9" connectable="0" vertex="1">
          <mxGeometry relative="1" as="geometry">
            <mxPoint as="offset" />
          </mxGeometry>
        </mxCell>
        <mxCell id="8NO0AHSbTcHH3xZStWIT-11" value="" style="endArrow=classic;html=1;rounded=1;" parent="8NO0AHSbTcHH3xZStWIT-27" source="v2eCrjNbCVR9gLbqSEYK-83" target="8NO0AHSbTcHH3xZStWIT-6" edge="1">
          <mxGeometry width="50" height="50" relative="1" as="geometry">
            <mxPoint x="298" y="290" as="sourcePoint" />
            <mxPoint x="412" y="210" as="targetPoint" />
          </mxGeometry>
        </mxCell>
        <mxCell id="8NO0AHSbTcHH3xZStWIT-12" value="impl" style="edgeLabel;html=1;align=center;verticalAlign=middle;resizable=0;points=[];rounded=1;" parent="8NO0AHSbTcHH3xZStWIT-11" vertex="1" connectable="0">
          <mxGeometry relative="1" as="geometry">
            <mxPoint as="offset" />
          </mxGeometry>
        </mxCell>
        <mxCell id="8NO0AHSbTcHH3xZStWIT-13" value="" style="endArrow=classic;html=1;rounded=1;" parent="8NO0AHSbTcHH3xZStWIT-27" source="v2eCrjNbCVR9gLbqSEYK-83" target="8NO0AHSbTcHH3xZStWIT-5" edge="1">
          <mxGeometry width="50" height="50" relative="1" as="geometry">
            <mxPoint x="220" y="-20" as="sourcePoint" />
            <mxPoint x="150" y="-20" as="targetPoint" />
          </mxGeometry>
        </mxCell>
        <mxCell id="8NO0AHSbTcHH3xZStWIT-14" value="impl" style="edgeLabel;html=1;align=center;verticalAlign=middle;resizable=0;points=[];rounded=1;" parent="8NO0AHSbTcHH3xZStWIT-13" vertex="1" connectable="0">
          <mxGeometry relative="1" as="geometry">
            <mxPoint as="offset" />
          </mxGeometry>
        </mxCell>
        <mxCell id="8NO0AHSbTcHH3xZStWIT-15" value="" style="endArrow=classic;html=1;rounded=1;" parent="8NO0AHSbTcHH3xZStWIT-27" source="v2eCrjNbCVR9gLbqSEYK-82" target="8NO0AHSbTcHH3xZStWIT-6" edge="1">
          <mxGeometry width="50" height="50" relative="1" as="geometry">
            <mxPoint x="273" y="10" as="sourcePoint" />
            <mxPoint x="410" y="-70" as="targetPoint" />
          </mxGeometry>
        </mxCell>
        <mxCell id="8NO0AHSbTcHH3xZStWIT-16" value="impl" style="edgeLabel;html=1;align=center;verticalAlign=middle;resizable=0;points=[];rounded=1;" parent="8NO0AHSbTcHH3xZStWIT-15" vertex="1" connectable="0">
          <mxGeometry relative="1" as="geometry">
            <mxPoint as="offset" />
          </mxGeometry>
        </mxCell>
        <mxCell id="8NO0AHSbTcHH3xZStWIT-17" value="" style="endArrow=classic;html=1;rounded=1;" parent="8NO0AHSbTcHH3xZStWIT-27" source="v2eCrjNbCVR9gLbqSEYK-79" target="8NO0AHSbTcHH3xZStWIT-6" edge="1">
          <mxGeometry width="50" height="50" relative="1" as="geometry">
            <mxPoint x="304" y="170" as="sourcePoint" />
            <mxPoint x="441" y="90" as="targetPoint" />
            <Array as="points">
              <mxPoint x="350" y="210" />
            </Array>
          </mxGeometry>
        </mxCell>
        <mxCell id="8NO0AHSbTcHH3xZStWIT-18" value="impl" style="edgeLabel;html=1;align=center;verticalAlign=middle;resizable=0;points=[];rounded=1;" parent="8NO0AHSbTcHH3xZStWIT-17" vertex="1" connectable="0">
          <mxGeometry relative="1" as="geometry">
            <mxPoint x="-30" y="36" as="offset" />
          </mxGeometry>
        </mxCell>
        <mxCell id="8NO0AHSbTcHH3xZStWIT-19" value="" style="endArrow=classic;html=1;rounded=1;" parent="8NO0AHSbTcHH3xZStWIT-27" source="v2eCrjNbCVR9gLbqSEYK-83" target="v2eCrjNbCVR9gLbqSEYK-95" edge="1">
          <mxGeometry width="50" height="50" relative="1" as="geometry">
            <mxPoint x="243" y="210" as="sourcePoint" />
            <mxPoint x="133" y="290" as="targetPoint" />
          </mxGeometry>
        </mxCell>
        <mxCell id="8NO0AHSbTcHH3xZStWIT-20" value="impl" style="edgeLabel;html=1;align=center;verticalAlign=middle;resizable=0;points=[];rounded=1;" parent="8NO0AHSbTcHH3xZStWIT-19" vertex="1" connectable="0">
          <mxGeometry relative="1" as="geometry">
            <mxPoint as="offset" />
          </mxGeometry>
        </mxCell>
        <mxCell id="8NO0AHSbTcHH3xZStWIT-21" value="" style="endArrow=classic;html=1;rounded=1;" parent="8NO0AHSbTcHH3xZStWIT-27" source="v2eCrjNbCVR9gLbqSEYK-83" target="v2eCrjNbCVR9gLbqSEYK-94" edge="1">
          <mxGeometry width="50" height="50" relative="1" as="geometry">
            <mxPoint x="243" y="90" as="sourcePoint" />
            <mxPoint x="133" y="170" as="targetPoint" />
            <Array as="points">
              <mxPoint x="160" y="160" />
            </Array>
          </mxGeometry>
        </mxCell>
        <mxCell id="8NO0AHSbTcHH3xZStWIT-22" value="impl" style="edgeLabel;html=1;align=center;verticalAlign=middle;resizable=0;points=[];rounded=1;" parent="8NO0AHSbTcHH3xZStWIT-21" vertex="1" connectable="0">
          <mxGeometry relative="1" as="geometry">
            <mxPoint x="13" y="-21" as="offset" />
          </mxGeometry>
        </mxCell>
        <mxCell id="8NO0AHSbTcHH3xZStWIT-23" value="" style="endArrow=none;dashed=1;html=1;rounded=0;exitX=0.5;exitY=0;exitDx=0;exitDy=0;" parent="8NO0AHSbTcHH3xZStWIT-27" source="v2eCrjNbCVR9gLbqSEYK-83" edge="1">
          <mxGeometry width="50" height="50" relative="1" as="geometry">
            <mxPoint x="280" as="sourcePoint" />
            <mxPoint x="260" as="targetPoint" />
          </mxGeometry>
        </mxCell>
        <mxCell id="8NO0AHSbTcHH3xZStWIT-24" value="" style="endArrow=none;dashed=1;html=1;rounded=0;entryX=0.5;entryY=1;entryDx=0;entryDy=0;" parent="8NO0AHSbTcHH3xZStWIT-27" target="v2eCrjNbCVR9gLbqSEYK-79" edge="1">
          <mxGeometry width="50" height="50" relative="1" as="geometry">
            <mxPoint x="260" y="370" as="sourcePoint" />
            <mxPoint x="240" y="380" as="targetPoint" />
          </mxGeometry>
        </mxCell>
        <mxCell id="8NO0AHSbTcHH3xZStWIT-35" value="&lt;div&gt;Line&lt;/div&gt;" style="rounded=1;whiteSpace=wrap;html=1;fillColor=#1ba1e2;strokeColor=#006EAF;fontColor=#ffffff;" parent="1" vertex="1">
          <mxGeometry x="720" y="357.5" width="50" height="30" as="geometry" />
        </mxCell>
        <mxCell id="8NO0AHSbTcHH3xZStWIT-36" style="edgeStyle=orthogonalEdgeStyle;rounded=1;orthogonalLoop=1;jettySize=auto;html=1;noEdgeStyle=1;orthogonal=1;" parent="1" source="8NO0AHSbTcHH3xZStWIT-38" target="8NO0AHSbTcHH3xZStWIT-35" edge="1">
          <mxGeometry relative="1" as="geometry">
            <Array as="points" />
          </mxGeometry>
        </mxCell>
        <mxCell id="8NO0AHSbTcHH3xZStWIT-37" value="&lt;div&gt;Newtype&lt;/div&gt;&lt;div&gt;(&lt;font color=&quot;#26a269&quot;&gt;abstraction&lt;/font&gt;)&lt;br&gt;&lt;/div&gt;" style="edgeLabel;html=1;align=center;verticalAlign=middle;resizable=0;points=[];rounded=1;" parent="8NO0AHSbTcHH3xZStWIT-36" vertex="1" connectable="0">
          <mxGeometry relative="1" as="geometry">
            <mxPoint as="offset" />
          </mxGeometry>
        </mxCell>
        <mxCell id="8NO0AHSbTcHH3xZStWIT-38" value="&lt;div&gt;DirectedLine&lt;/div&gt;" style="rounded=1;whiteSpace=wrap;html=1;fillColor=#1ba1e2;strokeColor=#006EAF;fontColor=#ffffff;" parent="1" vertex="1">
          <mxGeometry x="860" y="257" width="100" height="30" as="geometry" />
        </mxCell>
        <mxCell id="8NO0AHSbTcHH3xZStWIT-39" value="TwoDifferentPoints" style="rounded=1;whiteSpace=wrap;html=1;fillColor=#1ba1e2;strokeColor=#006EAF;fontColor=#ffffff;" parent="1" vertex="1">
          <mxGeometry x="850" y="153.5" width="120" height="35" as="geometry" />
        </mxCell>
        <mxCell id="8NO0AHSbTcHH3xZStWIT-40" value="" style="endArrow=classic;html=1;rounded=1;noEdgeStyle=1;orthogonal=1;" parent="1" source="8NO0AHSbTcHH3xZStWIT-39" target="8NO0AHSbTcHH3xZStWIT-38" edge="1">
          <mxGeometry width="50" height="50" relative="1" as="geometry">
            <mxPoint x="835" y="701" as="sourcePoint" />
            <mxPoint x="885" y="651" as="targetPoint" />
            <Array as="points" />
          </mxGeometry>
        </mxCell>
        <mxCell id="8NO0AHSbTcHH3xZStWIT-41" value="&lt;div&gt;Newtype&lt;/div&gt;&lt;div&gt;(&lt;font color=&quot;#26a269&quot;&gt;abstraction&lt;/font&gt;)&lt;br&gt;&lt;/div&gt;" style="edgeLabel;html=1;align=center;verticalAlign=middle;resizable=0;points=[];rounded=1;" parent="8NO0AHSbTcHH3xZStWIT-40" vertex="1" connectable="0">
          <mxGeometry relative="1" as="geometry">
            <mxPoint as="offset" />
          </mxGeometry>
        </mxCell>
        <mxCell id="8NO0AHSbTcHH3xZStWIT-42" value="HalfPlane" style="rounded=1;whiteSpace=wrap;html=1;fillColor=#1ba1e2;strokeColor=#006EAF;fontColor=#ffffff;" parent="1" vertex="1">
          <mxGeometry x="870" y="357.5" width="80" height="30" as="geometry" />
        </mxCell>
        <mxCell id="8NO0AHSbTcHH3xZStWIT-43" style="edgeStyle=orthogonalEdgeStyle;rounded=1;orthogonalLoop=1;jettySize=auto;html=1;noEdgeStyle=1;orthogonal=1;" parent="1" source="8NO0AHSbTcHH3xZStWIT-38" target="8NO0AHSbTcHH3xZStWIT-42" edge="1">
          <mxGeometry relative="1" as="geometry">
            <Array as="points" />
            <mxPoint x="815" y="336" as="sourcePoint" />
            <mxPoint x="815" y="416" as="targetPoint" />
          </mxGeometry>
        </mxCell>
        <mxCell id="8NO0AHSbTcHH3xZStWIT-44" value="&lt;div&gt;Newtype&lt;/div&gt;&lt;div&gt;(&lt;font color=&quot;#1a5fb4&quot;&gt;semantic&lt;/font&gt;)&lt;br&gt;&lt;/div&gt;" style="edgeLabel;html=1;align=center;verticalAlign=middle;resizable=0;points=[];rounded=1;" parent="8NO0AHSbTcHH3xZStWIT-43" vertex="1" connectable="0">
          <mxGeometry relative="1" as="geometry">
            <mxPoint as="offset" />
          </mxGeometry>
        </mxCell>
        <mxCell id="8NO0AHSbTcHH3xZStWIT-47" value="&lt;div&gt;DirectedLine&lt;/div&gt;&lt;div&gt;Cutting&lt;/div&gt;&lt;div&gt;CenteredUnitSquare&lt;br&gt;&lt;/div&gt;" style="rounded=1;whiteSpace=wrap;html=1;fillColor=#1ba1e2;strokeColor=#006EAF;fontColor=#ffffff;" parent="1" vertex="1">
          <mxGeometry x="1090" y="246" width="140" height="50" as="geometry" />
        </mxCell>
        <mxCell id="8NO0AHSbTcHH3xZStWIT-52" value="&lt;div&gt;TwoPoints&lt;/div&gt;&lt;div&gt;OnDifferentFacesOf&lt;/div&gt;&lt;div&gt;CenteredUnitSquare&lt;/div&gt;" style="rounded=1;whiteSpace=wrap;html=1;fillColor=#1ba1e2;strokeColor=#006EAF;fontColor=#ffffff;" parent="1" vertex="1">
          <mxGeometry x="1090" y="140" width="140" height="60" as="geometry" />
        </mxCell>
        <mxCell id="8NO0AHSbTcHH3xZStWIT-57" value="" style="endArrow=classic;html=1;rounded=0;" parent="1" source="8NO0AHSbTcHH3xZStWIT-39" target="8NO0AHSbTcHH3xZStWIT-52" edge="1">
          <mxGeometry width="50" height="50" relative="1" as="geometry">
            <mxPoint x="875" y="245" as="sourcePoint" />
            <mxPoint x="970" y="170" as="targetPoint" />
          </mxGeometry>
        </mxCell>
        <mxCell id="dO09flpF3zp-Y3cEDFPq-5" value="&lt;div&gt;Newtype&lt;/div&gt;&lt;div&gt;(&lt;font color=&quot;#a51d2d&quot;&gt;refinement&lt;/font&gt;)&lt;br&gt;&lt;/div&gt;" style="edgeLabel;html=1;align=center;verticalAlign=middle;resizable=0;points=[];" parent="8NO0AHSbTcHH3xZStWIT-57" vertex="1" connectable="0">
          <mxGeometry relative="1" as="geometry">
            <mxPoint as="offset" />
          </mxGeometry>
        </mxCell>
        <mxCell id="8NO0AHSbTcHH3xZStWIT-59" value="" style="endArrow=classic;html=1;rounded=0;" parent="1" source="8NO0AHSbTcHH3xZStWIT-52" target="8NO0AHSbTcHH3xZStWIT-47" edge="1">
          <mxGeometry width="50" height="50" relative="1" as="geometry">
            <mxPoint x="960" y="185" as="sourcePoint" />
            <mxPoint x="960" y="225" as="targetPoint" />
          </mxGeometry>
        </mxCell>
        <mxCell id="dO09flpF3zp-Y3cEDFPq-8" value="&lt;div&gt;Newtype&lt;/div&gt;&lt;div&gt;(&lt;font color=&quot;#26a269&quot;&gt;abstraction&lt;/font&gt;)&lt;br&gt;&lt;/div&gt;" style="edgeLabel;html=1;align=center;verticalAlign=middle;resizable=0;points=[];" parent="8NO0AHSbTcHH3xZStWIT-59" vertex="1" connectable="0">
          <mxGeometry relative="1" as="geometry">
            <mxPoint as="offset" />
          </mxGeometry>
        </mxCell>
        <mxCell id="8NO0AHSbTcHH3xZStWIT-66" value="&lt;div&gt;HalfPlane&lt;/div&gt;&lt;div&gt;Cutting&lt;/div&gt;&lt;div&gt;CenteredUnitSquare&lt;/div&gt;" style="rounded=1;whiteSpace=wrap;html=1;fillColor=#1ba1e2;strokeColor=#006EAF;fontColor=#ffffff;" parent="1" vertex="1">
          <mxGeometry x="1095" y="345" width="130" height="55" as="geometry" />
        </mxCell>
        <mxCell id="8NO0AHSbTcHH3xZStWIT-67" value="" style="endArrow=classic;html=1;rounded=0;" parent="1" source="8NO0AHSbTcHH3xZStWIT-47" target="8NO0AHSbTcHH3xZStWIT-66" edge="1">
          <mxGeometry x="-0.284" y="-61" width="50" height="50" relative="1" as="geometry">
            <mxPoint x="1034.29" y="230" as="sourcePoint" />
            <mxPoint x="1034.29" y="275" as="targetPoint" />
            <mxPoint as="offset" />
          </mxGeometry>
        </mxCell>
        <mxCell id="HVuLOxm5gcPt4g6opzB_-2" value="&lt;div&gt;Newtype&lt;/div&gt;&lt;div&gt;(&lt;font color=&quot;#1a5fb4&quot;&gt;semantic&lt;/font&gt;)&lt;br&gt;&lt;/div&gt;" style="edgeLabel;html=1;align=center;verticalAlign=middle;resizable=0;points=[];" parent="8NO0AHSbTcHH3xZStWIT-67" vertex="1" connectable="0">
          <mxGeometry relative="1" as="geometry">
            <mxPoint as="offset" />
          </mxGeometry>
        </mxCell>
        <mxCell id="HVuLOxm5gcPt4g6opzB_-6" value="" style="endArrow=classic;dashed=1;html=1;dashPattern=1 3;strokeWidth=2;rounded=0;endFill=1;endSize=3;" parent="1" source="8NO0AHSbTcHH3xZStWIT-38" target="8NO0AHSbTcHH3xZStWIT-47" edge="1">
          <mxGeometry width="50" height="50" relative="1" as="geometry">
            <mxPoint x="845" y="230" as="sourcePoint" />
            <mxPoint x="985" y="275" as="targetPoint" />
          </mxGeometry>
        </mxCell>
        <mxCell id="HVuLOxm5gcPt4g6opzB_-7" value="&lt;div&gt;&lt;font color=&quot;#a51d2d&quot;&gt;refinement&lt;/font&gt;&lt;br&gt;&lt;/div&gt;" style="edgeLabel;html=1;align=center;verticalAlign=middle;resizable=0;points=[];" parent="HVuLOxm5gcPt4g6opzB_-6" vertex="1" connectable="0">
          <mxGeometry relative="1" as="geometry">
            <mxPoint y="-12" as="offset" />
          </mxGeometry>
        </mxCell>
        <mxCell id="HVuLOxm5gcPt4g6opzB_-8" value="" style="endArrow=classic;dashed=1;html=1;dashPattern=1 3;strokeWidth=2;rounded=0;endFill=1;endSize=3;" parent="1" source="8NO0AHSbTcHH3xZStWIT-42" target="8NO0AHSbTcHH3xZStWIT-66" edge="1">
          <mxGeometry width="50" height="50" relative="1" as="geometry">
            <mxPoint x="1040" y="460" as="sourcePoint" />
            <mxPoint x="1165" y="460" as="targetPoint" />
          </mxGeometry>
        </mxCell>
        <mxCell id="HVuLOxm5gcPt4g6opzB_-9" value="&lt;div&gt;&lt;font color=&quot;#a51d2d&quot;&gt;refinement&lt;/font&gt;&lt;br&gt;&lt;/div&gt;" style="edgeLabel;html=1;align=center;verticalAlign=middle;resizable=0;points=[];" parent="HVuLOxm5gcPt4g6opzB_-8" vertex="1" connectable="0">
          <mxGeometry relative="1" as="geometry">
            <mxPoint y="-12" as="offset" />
          </mxGeometry>
        </mxCell>
        <mxCell id="0TJrppLCOqJmz8Xq7RQ5-1" value="&lt;div&gt;DirectedLine&lt;/div&gt;&lt;div&gt;Cutting&lt;/div&gt;&lt;div&gt;GridSquare&lt;br&gt;&lt;/div&gt;" style="rounded=1;whiteSpace=wrap;html=1;fillColor=#1ba1e2;strokeColor=#006EAF;fontColor=#ffffff;" parent="1" vertex="1">
          <mxGeometry x="1375" y="246" width="100" height="50" as="geometry" />
        </mxCell>
        <mxCell id="0TJrppLCOqJmz8Xq7RQ5-2" value="&lt;div&gt;TwoPoints&lt;/div&gt;&lt;div&gt;OnDifferentFacesOf&lt;/div&gt;&lt;div&gt;GridSquare&lt;/div&gt;" style="rounded=1;whiteSpace=wrap;html=1;fillColor=#1ba1e2;strokeColor=#006EAF;fontColor=#ffffff;" parent="1" vertex="1">
          <mxGeometry x="1360" y="140" width="130" height="60" as="geometry" />
        </mxCell>
        <mxCell id="0TJrppLCOqJmz8Xq7RQ5-5" value="" style="endArrow=classic;html=1;rounded=0;fontSize=12;startSize=8;endSize=8;curved=1;" parent="1" source="8NO0AHSbTcHH3xZStWIT-52" target="0TJrppLCOqJmz8Xq7RQ5-2" edge="1">
          <mxGeometry relative="1" as="geometry">
            <mxPoint x="1270" y="152.5" as="sourcePoint" />
            <mxPoint x="1370" y="152.5" as="targetPoint" />
          </mxGeometry>
        </mxCell>
        <mxCell id="0TJrppLCOqJmz8Xq7RQ5-6" value="&lt;div&gt;Wrapped&lt;/div&gt;&lt;div&gt;(AtGridSquare)&lt;br&gt;&lt;/div&gt;" style="edgeLabel;resizable=0;html=1;fontSize=12;;align=center;verticalAlign=middle;" parent="0TJrppLCOqJmz8Xq7RQ5-5" connectable="0" vertex="1">
          <mxGeometry relative="1" as="geometry" />
        </mxCell>
        <mxCell id="0TJrppLCOqJmz8Xq7RQ5-9" value="" style="endArrow=classic;html=1;rounded=0;fontSize=12;startSize=8;endSize=8;curved=1;" parent="1" source="8NO0AHSbTcHH3xZStWIT-47" target="0TJrppLCOqJmz8Xq7RQ5-1" edge="1">
          <mxGeometry relative="1" as="geometry">
            <mxPoint x="1240" y="271.5" as="sourcePoint" />
            <mxPoint x="1380" y="278.5" as="targetPoint" />
          </mxGeometry>
        </mxCell>
        <mxCell id="0TJrppLCOqJmz8Xq7RQ5-10" value="&lt;div&gt;Wrapped&lt;/div&gt;&lt;div&gt;(AtGridSquare)&lt;br&gt;&lt;/div&gt;" style="edgeLabel;resizable=0;html=1;fontSize=12;;align=center;verticalAlign=middle;" parent="0TJrppLCOqJmz8Xq7RQ5-9" connectable="0" vertex="1">
          <mxGeometry relative="1" as="geometry" />
        </mxCell>
        <mxCell id="0TJrppLCOqJmz8Xq7RQ5-11" value="" style="endArrow=classic;html=1;rounded=0;fontSize=12;startSize=8;endSize=8;curved=1;" parent="1" source="8NO0AHSbTcHH3xZStWIT-66" target="0TJrppLCOqJmz8Xq7RQ5-15" edge="1">
          <mxGeometry relative="1" as="geometry">
            <mxPoint x="1300" y="440" as="sourcePoint" />
            <mxPoint x="1440" y="447" as="targetPoint" />
          </mxGeometry>
        </mxCell>
        <mxCell id="0TJrppLCOqJmz8Xq7RQ5-12" value="&lt;div&gt;Wrapped&lt;/div&gt;&lt;div&gt;(AtGridSquare)&lt;br&gt;&lt;/div&gt;" style="edgeLabel;resizable=0;html=1;fontSize=12;;align=center;verticalAlign=middle;" parent="0TJrppLCOqJmz8Xq7RQ5-11" connectable="0" vertex="1">
          <mxGeometry relative="1" as="geometry" />
        </mxCell>
        <mxCell id="0TJrppLCOqJmz8Xq7RQ5-15" value="&lt;div&gt;HalfPlane&lt;/div&gt;&lt;div&gt;Cutting&lt;/div&gt;&lt;div&gt;GridSquare&lt;/div&gt;" style="rounded=1;whiteSpace=wrap;html=1;fillColor=#1ba1e2;strokeColor=#006EAF;fontColor=#ffffff;" parent="1" vertex="1">
          <mxGeometry x="1360" y="345" width="130" height="55" as="geometry" />
        </mxCell>
        <mxCell id="0TJrppLCOqJmz8Xq7RQ5-16" value="" style="endArrow=classic;dashed=1;html=1;dashPattern=1 3;strokeWidth=2;rounded=0;endFill=1;endSize=3;" parent="1" edge="1" target="0TJrppLCOqJmz8Xq7RQ5-1" source="0TJrppLCOqJmz8Xq7RQ5-2">
          <mxGeometry width="50" height="50" relative="1" as="geometry">
            <mxPoint x="1210" y="550" as="sourcePoint" />
            <mxPoint x="1450" y="550" as="targetPoint" />
          </mxGeometry>
        </mxCell>
        <mxCell id="0TJrppLCOqJmz8Xq7RQ5-17" value="&lt;span style=&quot;color: rgb(38, 162, 105); font-family: Helvetica; font-size: 11px; font-style: normal; font-variant-ligatures: normal; font-variant-caps: normal; font-weight: 400; letter-spacing: normal; orphans: 2; text-align: center; text-indent: 0px; text-transform: none; widows: 2; word-spacing: 0px; -webkit-text-stroke-width: 0px; white-space: nowrap; background-color: rgb(255, 255, 255); text-decoration-thickness: initial; text-decoration-style: initial; text-decoration-color: initial; display: inline !important; float: none;&quot;&gt;abstraction&lt;/span&gt;" style="edgeLabel;html=1;align=center;verticalAlign=middle;resizable=0;points=[];" parent="0TJrppLCOqJmz8Xq7RQ5-16" vertex="1" connectable="0">
          <mxGeometry relative="1" as="geometry">
            <mxPoint as="offset" />
          </mxGeometry>
        </mxCell>
      </root>
    </mxGraphModel>
  </diagram>
</mxfile>
